# xmcd
# 
# Track frame offsets:
#     150
#     24870
#     54733
#     81415
#     98945
#     119730
#     145935
# 
# Disc length: 2290
# 
# Revision: 1
# Processed by: cddbd v1.5.2PL0 Copyright (c) Steve Scherf et al.
# Submitted via: BonkEnc v1.0.8
# 
DISCID=5f08f007
DTITLE=Richie Beirach, Frank Tusa - Sunday Song
DYEAR=1975
DGENRE=Contemporary Jazz
TTITLE0=Skeletonal
TTITLE1=The Last Time
TTITLE2=Sunday Song
TTITLE3=Egg Shell
TTITLE4=In the Middle
TTITLE5=The Pearl
TTITLE6=Paka Lolo
EXTD=
EXTT0=
EXTT1=
EXTT2=
EXTT3=
EXTT4=
EXTT5=
EXTT6=
PLAYORDER=
